<mxfile host="app.diagrams.net" modified="2024-02-27T11:39:38.134Z" agent="Mozilla/5.0 (Windows NT 10.0; Win64; x64) AppleWebKit/537.36 (KHTML, like Gecko) Chrome/122.0.0.0 Safari/537.36" etag="0f9Dprb75sRYX6SO8mAJ" version="23.1.7" type="device">
  <diagram name="Página-1" id="ib1BsWM7OYcoae1xOUMD">
    <mxGraphModel dx="1434" dy="772" grid="1" gridSize="10" guides="1" tooltips="1" connect="1" arrows="1" fold="1" page="1" pageScale="1" pageWidth="827" pageHeight="1169" math="0" shadow="0">
      <root>
        <mxCell id="0" />
        <mxCell id="1" parent="0" />
        <mxCell id="Lb5uv8jKtmQ8hmVkKNV8-1" value="Administrador" style="shape=umlActor;verticalLabelPosition=bottom;verticalAlign=top;html=1;outlineConnect=0;" vertex="1" parent="1">
          <mxGeometry x="800" y="140" width="27" height="50" as="geometry" />
        </mxCell>
        <mxCell id="Lb5uv8jKtmQ8hmVkKNV8-4" value="" style="endArrow=none;html=1;rounded=0;" edge="1" parent="1" target="Lb5uv8jKtmQ8hmVkKNV8-1">
          <mxGeometry width="50" height="50" relative="1" as="geometry">
            <mxPoint x="590" y="195" as="sourcePoint" />
            <mxPoint x="690" y="240" as="targetPoint" />
          </mxGeometry>
        </mxCell>
        <mxCell id="Lb5uv8jKtmQ8hmVkKNV8-5" value="Autenticação por email (admin)" style="ellipse;whiteSpace=wrap;html=1;" vertex="1" parent="1">
          <mxGeometry x="470" y="162.5" width="120" height="65" as="geometry" />
        </mxCell>
        <mxCell id="Lb5uv8jKtmQ8hmVkKNV8-6" value="" style="endArrow=classic;html=1;rounded=0;exitX=0.403;exitY=1.082;exitDx=0;exitDy=0;exitPerimeter=0;entryX=1;entryY=0;entryDx=0;entryDy=0;" edge="1" parent="1" source="Lb5uv8jKtmQ8hmVkKNV8-7" target="Lb5uv8jKtmQ8hmVkKNV8-5">
          <mxGeometry width="50" height="50" relative="1" as="geometry">
            <mxPoint x="570" y="360" as="sourcePoint" />
            <mxPoint x="620" y="140" as="targetPoint" />
          </mxGeometry>
        </mxCell>
        <mxCell id="Lb5uv8jKtmQ8hmVkKNV8-7" value="&lt;font style=&quot;font-size: 10px;&quot;&gt;Sign-in&lt;/font&gt;" style="ellipse;whiteSpace=wrap;html=1;" vertex="1" parent="1">
          <mxGeometry x="580" y="82.5" width="55" height="20" as="geometry" />
        </mxCell>
        <mxCell id="Lb5uv8jKtmQ8hmVkKNV8-10" value="" style="endArrow=classic;html=1;rounded=0;entryX=0.5;entryY=0;entryDx=0;entryDy=0;" edge="1" parent="1" source="Lb5uv8jKtmQ8hmVkKNV8-11" target="Lb5uv8jKtmQ8hmVkKNV8-5">
          <mxGeometry width="50" height="50" relative="1" as="geometry">
            <mxPoint x="529.83" y="150" as="sourcePoint" />
            <mxPoint x="550" y="120" as="targetPoint" />
          </mxGeometry>
        </mxCell>
        <mxCell id="Lb5uv8jKtmQ8hmVkKNV8-11" value="&lt;p&gt;&lt;font style=&quot;font-size: 8px;&quot;&gt;Remember me&lt;/font&gt;&lt;/p&gt;" style="ellipse;whiteSpace=wrap;html=1;" vertex="1" parent="1">
          <mxGeometry x="496.25" y="80" width="67.5" height="25" as="geometry" />
        </mxCell>
        <mxCell id="Lb5uv8jKtmQ8hmVkKNV8-15" value="" style="endArrow=open;html=1;rounded=0;dashed=1;endFill=0;exitX=0.712;exitY=0.053;exitDx=0;exitDy=0;exitPerimeter=0;entryX=0.303;entryY=0.956;entryDx=0;entryDy=0;entryPerimeter=0;" edge="1" parent="1" source="Lb5uv8jKtmQ8hmVkKNV8-17" target="Lb5uv8jKtmQ8hmVkKNV8-5">
          <mxGeometry width="50" height="50" relative="1" as="geometry">
            <mxPoint x="480" y="240" as="sourcePoint" />
            <mxPoint x="470" y="240" as="targetPoint" />
          </mxGeometry>
        </mxCell>
        <mxCell id="Lb5uv8jKtmQ8hmVkKNV8-16" value="Includes" style="edgeLabel;html=1;align=center;verticalAlign=middle;resizable=0;points=[];" vertex="1" connectable="0" parent="Lb5uv8jKtmQ8hmVkKNV8-15">
          <mxGeometry x="0.0371" y="2" relative="1" as="geometry">
            <mxPoint as="offset" />
          </mxGeometry>
        </mxCell>
        <mxCell id="Lb5uv8jKtmQ8hmVkKNV8-17" value="Atualização de catálogo" style="ellipse;whiteSpace=wrap;html=1;" vertex="1" parent="1">
          <mxGeometry x="376.25" y="320" width="120" height="50" as="geometry" />
        </mxCell>
        <mxCell id="Lb5uv8jKtmQ8hmVkKNV8-19" value="&lt;font style=&quot;font-size: 8px;&quot;&gt;Remover livro&lt;/font&gt;" style="ellipse;whiteSpace=wrap;html=1;" vertex="1" parent="1">
          <mxGeometry x="613.75" y="290" width="66.25" height="22.5" as="geometry" />
        </mxCell>
        <mxCell id="Lb5uv8jKtmQ8hmVkKNV8-21" value="&lt;p&gt;&lt;font style=&quot;font-size: 8px;&quot;&gt;Inserir livro&lt;/font&gt;&lt;/p&gt;" style="ellipse;whiteSpace=wrap;html=1;" vertex="1" parent="1">
          <mxGeometry x="530.63" y="270" width="67.5" height="25" as="geometry" />
        </mxCell>
        <mxCell id="Lb5uv8jKtmQ8hmVkKNV8-23" value="&lt;font style=&quot;font-size: 8px;&quot;&gt;Atualizar dados &lt;br&gt;de livro&lt;/font&gt;" style="ellipse;whiteSpace=wrap;html=1;" vertex="1" parent="1">
          <mxGeometry x="620" y="333.75" width="80" height="46.25" as="geometry" />
        </mxCell>
        <mxCell id="Lb5uv8jKtmQ8hmVkKNV8-24" value="&lt;font style=&quot;font-size: 8px;&quot;&gt;Atualizar Preço&lt;/font&gt;" style="ellipse;whiteSpace=wrap;html=1;" vertex="1" parent="1">
          <mxGeometry x="633.75" y="437.5" width="66.25" height="22.5" as="geometry" />
        </mxCell>
        <mxCell id="Lb5uv8jKtmQ8hmVkKNV8-25" value="&lt;p&gt;&lt;font style=&quot;font-size: 8px;&quot;&gt;Atualizar imagem de capa&lt;/font&gt;&lt;/p&gt;" style="ellipse;whiteSpace=wrap;html=1;" vertex="1" parent="1">
          <mxGeometry x="518.75" y="410" width="91.25" height="40" as="geometry" />
        </mxCell>
        <mxCell id="Lb5uv8jKtmQ8hmVkKNV8-27" value="&lt;font style=&quot;font-size: 8px;&quot;&gt;Atualizar descrição&lt;/font&gt;" style="ellipse;whiteSpace=wrap;html=1;" vertex="1" parent="1">
          <mxGeometry x="563.75" y="460" width="80" height="30" as="geometry" />
        </mxCell>
        <mxCell id="Lb5uv8jKtmQ8hmVkKNV8-32" value="&lt;font style=&quot;font-size: 8px;&quot;&gt;Adicionar/remover&lt;br&gt;proteção&lt;br&gt;&lt;/font&gt;" style="ellipse;whiteSpace=wrap;html=1;" vertex="1" parent="1">
          <mxGeometry x="693.13" y="410" width="90" height="40" as="geometry" />
        </mxCell>
        <mxCell id="Lb5uv8jKtmQ8hmVkKNV8-34" value="" style="endArrow=open;html=1;rounded=0;dashed=1;endFill=0;exitX=0.565;exitY=1.071;exitDx=0;exitDy=0;exitPerimeter=0;entryX=0.5;entryY=0;entryDx=0;entryDy=0;" edge="1" parent="1" source="Lb5uv8jKtmQ8hmVkKNV8-32" target="Lb5uv8jKtmQ8hmVkKNV8-36">
          <mxGeometry width="50" height="50" relative="1" as="geometry">
            <mxPoint x="726" y="460" as="sourcePoint" />
            <mxPoint x="720" y="560" as="targetPoint" />
          </mxGeometry>
        </mxCell>
        <mxCell id="Lb5uv8jKtmQ8hmVkKNV8-35" value="Includes" style="edgeLabel;html=1;align=center;verticalAlign=middle;resizable=0;points=[];" vertex="1" connectable="0" parent="Lb5uv8jKtmQ8hmVkKNV8-34">
          <mxGeometry x="0.0371" y="2" relative="1" as="geometry">
            <mxPoint as="offset" />
          </mxGeometry>
        </mxCell>
        <mxCell id="Lb5uv8jKtmQ8hmVkKNV8-36" value="&lt;font style=&quot;font-size: 8px;&quot;&gt;Proteger ebooks contra partilha&lt;br&gt;&lt;/font&gt;" style="ellipse;whiteSpace=wrap;html=1;" vertex="1" parent="1">
          <mxGeometry x="583.13" y="550" width="110" height="45" as="geometry" />
        </mxCell>
        <mxCell id="Lb5uv8jKtmQ8hmVkKNV8-38" value="API Segurança" style="shape=umlActor;verticalLabelPosition=bottom;verticalAlign=top;html=1;outlineConnect=0;" vertex="1" parent="1">
          <mxGeometry x="800" y="500" width="27" height="50" as="geometry" />
        </mxCell>
        <mxCell id="Lb5uv8jKtmQ8hmVkKNV8-41" value="" style="endArrow=none;html=1;rounded=0;exitX=0.979;exitY=0.341;exitDx=0;exitDy=0;exitPerimeter=0;" edge="1" parent="1" source="Lb5uv8jKtmQ8hmVkKNV8-36" target="Lb5uv8jKtmQ8hmVkKNV8-38">
          <mxGeometry width="50" height="50" relative="1" as="geometry">
            <mxPoint x="610" y="658" as="sourcePoint" />
            <mxPoint x="820" y="630" as="targetPoint" />
          </mxGeometry>
        </mxCell>
        <mxCell id="Lb5uv8jKtmQ8hmVkKNV8-42" value="" style="endArrow=open;html=1;rounded=0;dashed=1;endFill=0;entryX=0;entryY=0.5;entryDx=0;entryDy=0;exitX=1;exitY=0.5;exitDx=0;exitDy=0;" edge="1" parent="1" source="Lb5uv8jKtmQ8hmVkKNV8-44" target="Lb5uv8jKtmQ8hmVkKNV8-5">
          <mxGeometry width="50" height="50" relative="1" as="geometry">
            <mxPoint x="320" y="210" as="sourcePoint" />
            <mxPoint x="230" y="280" as="targetPoint" />
          </mxGeometry>
        </mxCell>
        <mxCell id="Lb5uv8jKtmQ8hmVkKNV8-43" value="Extends" style="edgeLabel;html=1;align=center;verticalAlign=middle;resizable=0;points=[];" vertex="1" connectable="0" parent="Lb5uv8jKtmQ8hmVkKNV8-42">
          <mxGeometry x="0.0371" y="2" relative="1" as="geometry">
            <mxPoint as="offset" />
          </mxGeometry>
        </mxCell>
        <mxCell id="Lb5uv8jKtmQ8hmVkKNV8-44" value="Preview como visitante" style="ellipse;whiteSpace=wrap;html=1;" vertex="1" parent="1">
          <mxGeometry x="20" y="155" width="120" height="80" as="geometry" />
        </mxCell>
        <mxCell id="Lb5uv8jKtmQ8hmVkKNV8-47" value="" style="endArrow=open;html=1;rounded=0;dashed=1;endFill=0;entryX=0.089;entryY=0.844;entryDx=0;entryDy=0;entryPerimeter=0;exitX=0.983;exitY=0.248;exitDx=0;exitDy=0;exitPerimeter=0;" edge="1" parent="1" source="Lb5uv8jKtmQ8hmVkKNV8-49" target="Lb5uv8jKtmQ8hmVkKNV8-27">
          <mxGeometry width="50" height="50" relative="1" as="geometry">
            <mxPoint x="480" y="520" as="sourcePoint" />
            <mxPoint x="518.75" y="530" as="targetPoint" />
          </mxGeometry>
        </mxCell>
        <mxCell id="Lb5uv8jKtmQ8hmVkKNV8-48" value="Extends" style="edgeLabel;html=1;align=center;verticalAlign=middle;resizable=0;points=[];" vertex="1" connectable="0" parent="Lb5uv8jKtmQ8hmVkKNV8-47">
          <mxGeometry x="0.0371" y="2" relative="1" as="geometry">
            <mxPoint as="offset" />
          </mxGeometry>
        </mxCell>
        <mxCell id="Lb5uv8jKtmQ8hmVkKNV8-49" value="Editar o texto" style="ellipse;whiteSpace=wrap;html=1;" vertex="1" parent="1">
          <mxGeometry x="422.25" y="505" width="74" height="45" as="geometry" />
        </mxCell>
        <mxCell id="Lb5uv8jKtmQ8hmVkKNV8-51" value="" style="endArrow=open;html=1;rounded=0;dashed=1;endFill=0;entryX=0.953;entryY=0.273;entryDx=0;entryDy=0;entryPerimeter=0;exitX=0.047;exitY=0.8;exitDx=0;exitDy=0;exitPerimeter=0;" edge="1" parent="1" source="Lb5uv8jKtmQ8hmVkKNV8-21" target="Lb5uv8jKtmQ8hmVkKNV8-17">
          <mxGeometry width="50" height="50" relative="1" as="geometry">
            <mxPoint x="446.5" y="411" as="sourcePoint" />
            <mxPoint x="522.5" y="380" as="targetPoint" />
          </mxGeometry>
        </mxCell>
        <mxCell id="Lb5uv8jKtmQ8hmVkKNV8-52" value="&lt;font style=&quot;font-size: 8px;&quot;&gt;Extends&lt;/font&gt;" style="edgeLabel;html=1;align=center;verticalAlign=middle;resizable=0;points=[];" vertex="1" connectable="0" parent="Lb5uv8jKtmQ8hmVkKNV8-51">
          <mxGeometry x="0.0371" y="2" relative="1" as="geometry">
            <mxPoint x="1" y="-6" as="offset" />
          </mxGeometry>
        </mxCell>
        <mxCell id="Lb5uv8jKtmQ8hmVkKNV8-53" value="" style="endArrow=open;html=1;rounded=0;dashed=1;endFill=0;entryX=0.992;entryY=0.433;entryDx=0;entryDy=0;entryPerimeter=0;exitX=0.044;exitY=0.726;exitDx=0;exitDy=0;exitPerimeter=0;" edge="1" parent="1" source="Lb5uv8jKtmQ8hmVkKNV8-19" target="Lb5uv8jKtmQ8hmVkKNV8-17">
          <mxGeometry width="50" height="50" relative="1" as="geometry">
            <mxPoint x="544" y="300" as="sourcePoint" />
            <mxPoint x="501" y="344" as="targetPoint" />
          </mxGeometry>
        </mxCell>
        <mxCell id="Lb5uv8jKtmQ8hmVkKNV8-54" value="&lt;font style=&quot;font-size: 8px;&quot;&gt;Extends&lt;/font&gt;" style="edgeLabel;html=1;align=center;verticalAlign=middle;resizable=0;points=[];" vertex="1" connectable="0" parent="Lb5uv8jKtmQ8hmVkKNV8-53">
          <mxGeometry x="0.0371" y="2" relative="1" as="geometry">
            <mxPoint x="1" y="-6" as="offset" />
          </mxGeometry>
        </mxCell>
        <mxCell id="Lb5uv8jKtmQ8hmVkKNV8-55" value="" style="endArrow=open;html=1;rounded=0;dashed=1;endFill=0;entryX=0.981;entryY=0.633;entryDx=0;entryDy=0;entryPerimeter=0;exitX=0;exitY=0.5;exitDx=0;exitDy=0;" edge="1" parent="1" source="Lb5uv8jKtmQ8hmVkKNV8-23" target="Lb5uv8jKtmQ8hmVkKNV8-17">
          <mxGeometry width="50" height="50" relative="1" as="geometry">
            <mxPoint x="627" y="316" as="sourcePoint" />
            <mxPoint x="505" y="352" as="targetPoint" />
          </mxGeometry>
        </mxCell>
        <mxCell id="Lb5uv8jKtmQ8hmVkKNV8-56" value="&lt;font style=&quot;font-size: 8px;&quot;&gt;Extends&lt;/font&gt;" style="edgeLabel;html=1;align=center;verticalAlign=middle;resizable=0;points=[];" vertex="1" connectable="0" parent="Lb5uv8jKtmQ8hmVkKNV8-55">
          <mxGeometry x="0.0371" y="2" relative="1" as="geometry">
            <mxPoint x="1" y="-6" as="offset" />
          </mxGeometry>
        </mxCell>
        <mxCell id="Lb5uv8jKtmQ8hmVkKNV8-57" value="" style="endArrow=open;html=1;rounded=0;dashed=1;endFill=0;exitX=0.378;exitY=0.025;exitDx=0;exitDy=0;exitPerimeter=0;entryX=0.935;entryY=0.823;entryDx=0;entryDy=0;entryPerimeter=0;" edge="1" parent="1" source="Lb5uv8jKtmQ8hmVkKNV8-32" target="Lb5uv8jKtmQ8hmVkKNV8-23">
          <mxGeometry width="50" height="50" relative="1" as="geometry">
            <mxPoint x="666.75" y="400" as="sourcePoint" />
            <mxPoint x="730" y="360" as="targetPoint" />
            <Array as="points" />
          </mxGeometry>
        </mxCell>
        <mxCell id="Lb5uv8jKtmQ8hmVkKNV8-58" value="&lt;font style=&quot;font-size: 6px;&quot;&gt;Extends&lt;/font&gt;" style="edgeLabel;html=1;align=center;verticalAlign=middle;resizable=0;points=[];" vertex="1" connectable="0" parent="Lb5uv8jKtmQ8hmVkKNV8-57">
          <mxGeometry x="0.0371" y="2" relative="1" as="geometry">
            <mxPoint x="3" y="-2" as="offset" />
          </mxGeometry>
        </mxCell>
        <mxCell id="Lb5uv8jKtmQ8hmVkKNV8-59" value="" style="endArrow=open;html=1;rounded=0;dashed=1;endFill=0;exitX=0.5;exitY=0;exitDx=0;exitDy=0;entryX=0.5;entryY=1;entryDx=0;entryDy=0;" edge="1" parent="1" source="Lb5uv8jKtmQ8hmVkKNV8-24" target="Lb5uv8jKtmQ8hmVkKNV8-23">
          <mxGeometry width="50" height="50" relative="1" as="geometry">
            <mxPoint x="680" y="429" as="sourcePoint" />
            <mxPoint x="648" y="390" as="targetPoint" />
            <Array as="points" />
          </mxGeometry>
        </mxCell>
        <mxCell id="Lb5uv8jKtmQ8hmVkKNV8-60" value="&lt;font style=&quot;font-size: 6px;&quot;&gt;Extends&lt;/font&gt;" style="edgeLabel;html=1;align=center;verticalAlign=middle;resizable=0;points=[];" vertex="1" connectable="0" parent="Lb5uv8jKtmQ8hmVkKNV8-59">
          <mxGeometry x="0.0371" y="2" relative="1" as="geometry">
            <mxPoint x="6" y="2" as="offset" />
          </mxGeometry>
        </mxCell>
        <mxCell id="Lb5uv8jKtmQ8hmVkKNV8-61" value="" style="endArrow=open;html=1;rounded=0;dashed=1;endFill=0;exitX=0.646;exitY=0.008;exitDx=0;exitDy=0;entryX=0.008;entryY=0.683;entryDx=0;entryDy=0;entryPerimeter=0;exitPerimeter=0;" edge="1" parent="1" source="Lb5uv8jKtmQ8hmVkKNV8-25" target="Lb5uv8jKtmQ8hmVkKNV8-23">
          <mxGeometry width="50" height="50" relative="1" as="geometry">
            <mxPoint x="590" y="428" as="sourcePoint" />
            <mxPoint x="583" y="370" as="targetPoint" />
            <Array as="points" />
          </mxGeometry>
        </mxCell>
        <mxCell id="Lb5uv8jKtmQ8hmVkKNV8-62" value="&lt;font style=&quot;font-size: 6px;&quot;&gt;Extends&lt;/font&gt;" style="edgeLabel;html=1;align=center;verticalAlign=middle;resizable=0;points=[];" vertex="1" connectable="0" parent="Lb5uv8jKtmQ8hmVkKNV8-61">
          <mxGeometry x="0.0371" y="2" relative="1" as="geometry">
            <mxPoint y="2" as="offset" />
          </mxGeometry>
        </mxCell>
        <mxCell id="Lb5uv8jKtmQ8hmVkKNV8-63" value="" style="endArrow=open;html=1;rounded=0;dashed=1;endFill=0;exitX=0.641;exitY=-0.078;exitDx=0;exitDy=0;entryX=0.008;entryY=0.683;entryDx=0;entryDy=0;entryPerimeter=0;exitPerimeter=0;" edge="1" parent="1" source="Lb5uv8jKtmQ8hmVkKNV8-27">
          <mxGeometry width="50" height="50" relative="1" as="geometry">
            <mxPoint x="588" y="420" as="sourcePoint" />
            <mxPoint x="631" y="375" as="targetPoint" />
            <Array as="points" />
          </mxGeometry>
        </mxCell>
        <mxCell id="Lb5uv8jKtmQ8hmVkKNV8-64" value="&lt;font style=&quot;font-size: 6px;&quot;&gt;Extends&lt;/font&gt;" style="edgeLabel;html=1;align=center;verticalAlign=middle;resizable=0;points=[];" vertex="1" connectable="0" parent="Lb5uv8jKtmQ8hmVkKNV8-63">
          <mxGeometry x="0.0371" y="2" relative="1" as="geometry">
            <mxPoint y="2" as="offset" />
          </mxGeometry>
        </mxCell>
      </root>
    </mxGraphModel>
  </diagram>
</mxfile>
